<?xml version="1.0" encoding="UTF-8"?>
<svg id="Capa_2" data-name="Capa 2" xmlns="http://www.w3.org/2000/svg" viewBox="0 0 25.9 15.98">
  <defs>
    <style>
      .cls-1 {
        fill: #3c3c3c;
      }
    </style>
  </defs>
  <g id="Capa_1-2" data-name="Capa 1">
    <path class="cls-1" d="M0,0v15.98h7.72c.72,0,5.64-.15,5.64-4.64,0-2.81-1.93-3.77-2.92-4.05.72-.34,2.16-1.15,2.16-3.32,0-1.21-.17-3.97-5.1-3.97H0ZM17.6,1.48v1.46h5.97v-1.46h-5.97ZM3.51,2.73h3.29c.31,0,2.4-.17,2.4,1.84,0,1.71-1.51,1.89-2.13,1.89h-3.56v-3.72ZM20.73,4.26c-4.51,0-5.45,3.92-5.45,5.61,0,5.04,4.13,5.61,5.45,5.61,3.57,0,4.58-2.31,4.99-3.59h-2.59c-.1.33-.86,1.4-2.29,1.4-2.41,0-2.62-1.88-2.62-2.73h7.67c.16-2.92-1.12-6.32-5.16-6.32ZM20.65,6.45c.72,0,1.3.21,1.65.59.35.39.6.95.67,1.7h-4.75c.01-.21.06-.44.13-.7.07-.27.19-.52.38-.76.19-.23.45-.44.76-.59.31-.16.7-.24,1.16-.24ZM3.51,8.85h3.81c.76,0,2.54.12,2.54,2.29s-2.24,2.11-2.59,2.11h-3.75v-4.4Z"/>
  </g>
</svg>