<?xml version="1.0" encoding="UTF-8"?>
<svg id="Capa_2" data-name="Capa 2" xmlns="http://www.w3.org/2000/svg" viewBox="0 0 1756.98 352.19">
  <g id="Capa_1-2" data-name="Capa 1">
    <g>
      <polygon points="740.84 77.67 707.83 77.67 707.83 279.78 841.6 279.78 841.6 251.2 740.84 251.2 740.84 77.67"/>
      <polygon points="903.47 77.67 870.47 77.67 870.47 279.78 1004.23 279.78 1004.23 251.2 903.47 251.2 903.47 77.67"/>
      <path d="M1053.14,143.08c2.95-9.24,7.32-16.89,13.11-22.99,5.79-6.08,12.86-10.6,21.21-13.55,8.35-2.95,17.83-4.42,28.44-4.42s20.37,1.48,28.72,4.42c8.35,2.95,15.41,7.47,21.22,13.55,3.3,3.48,6.2,8.29,8.85,13.82,3.13,6.51,11.56,8.36,17.21,3.87,1.45-1.15,2.9-2.29,4.3-3.38,7.08-5.52,8.56-15.62,3.4-22.97-8.19-11.67-18.12-20.2-29.2-25.81-15.13-7.65-33.3-11.48-54.51-11.48s-38.85,3.83-54.07,11.48c-15.22,7.66-26.91,19.21-35.06,34.62-8.15,15.43-12.23,34.92-12.23,58.49s4.08,42.82,12.23,58.33c8.15,15.52,19.84,27.11,35.06,34.76,11.31,5.69,24.17,9.27,38.59,10.73,6.14.62,11.47-4.2,11.57-10.37.02-1.27.05-2.32.08-2.94.44-7.46-4.86-13.94-12.23-15.18-4.37-.73-8.49-1.78-12.38-3.15-8.35-2.95-15.41-7.46-21.21-13.56-5.79-6.09-10.16-13.74-13.11-22.98-2.95-9.23-4.42-19.93-4.42-32.11v-6.48c0-12.57,1.48-23.47,4.42-32.7Z"/>
      <path d="M1279.56,275.82c.95-.42,2.41-1.1,3.93-1.82,3.8-1.79,6.23-5.61,6.23-9.81v-18.58h-33v34.18h6.5c4.75,0,9.46-.95,13.81-2.85.84-.37,1.68-.74,2.53-1.12Z"/>
      <path d="M1266.71,79.63c-1.43,2.85-2.56,5.81-3.37,8.86-.52,1.95,1.49,3.63,3.33,2.79,7.3-3.34,14.86-6.38,22.6-9.1h.02c1.02-.36,1.73-1.3,1.79-2.38l.12-2.12h-21.34c-1.34,0-2.55.76-3.14,1.96h0Z"/>
      <path d="M1282.94,225.28l2.64-47.19c.49-8.81-3.67-17.24-10.96-22.21l-.09-.06-.09-.05-.08-.05c-2.23-1.69-6.41-5.14-10.8-10.32-1.56-1.84-4.56-.64-4.43,1.77l4.37,78.12h19.44Z"/>
      <path d="M1486.22,137.92c-2.75,3.05-6.28,4.97-10.6,5.75v13.55c5.89-1.17,11.53-3.38,16.94-6.62,5.4-3.25,9.87-8.25,13.4-15.03,3.53-6.77,5.3-15.76,5.3-26.95v-30.94h-32.99v34.18h15.61c0,5.29-.59,10.21-1.77,14.73-1.17,4.52-3.14,8.29-5.89,11.34Z"/>
      <path d="M1575.45,77.67h-19.7v16.01c0,3.7,4.3,5.74,7.18,3.41,5.2-4.2,10.19-8.07,15.09-11.67,3.34-2.46,1.58-7.75-2.56-7.75Z"/>
      <path d="M542.26,190.51h110.77v-28.29h-110.77c0-13.17,5.37-25.76,14.8-34.95.12-.12.25-.24.37-.36,13.83-13.47,32.41-20.95,51.72-20.95h56.86s0-28.29,0-28.29h-36.59c-3.85,0-5.32-5.05-2.06-7.09,36.02-22.56,77.93-38.58,126.4-38.58,23.56,0,45.79,6.23,60.02,19.57,10.23,9.79,10.24,14.7,12.97,14.7.12,0,.24-.01.37-.03,4-.45,6.23-7.56,2.66-13.34-11.11-20-50.68-27.56-73.8-27.56-64.31,0-120.37,22.13-168.73,52.33-14.18,8.85-27.69,18.39-40.55,28.29-1.49,1.14-2.97,2.28-4.44,3.42-6.9,5.41-13.62,10.91-20.14,16.44-4.34,3.74-8.62,7.47-12.85,11.21-22.95,20.28-44.28,40.66-64.92,62.76-4.67,5-12.96,1.59-12.93-5.25,0-.08,0-.17,0-.25,0-8.2-1.66-15.71-4.53-22.44-4.25-9.97-2.34-21.5,5.16-29.34,36.13-37.79,82.26-80.72,110.08-87.38,7.56-1.78,10.66-.45,11.11-2.67.45-2.66-2.22-3.11-6.22-3.11-24.85,0-75.72,26.62-123.64,65.66-16.19,13.18-37.39,18.8-57.86,14.7-.43-.09-.87-.17-1.31-.26-16.92-3.25-32.5-11.04-45.87-21.91-13.73-11.16-35.95-15.51-62.08-15.51-28.17,0-56.33,2.37-83.44,8.76-19.42,4.58-34.33-17.41-22.66-33.6,26.22-36.37,89.98-47.63,147.9-47.63,116.04,0,210.74,16.89,232.08,20.89,11.11,2.23,22.67,4.89,32.45,8,5.77,1.92,8.53,3.39,9.96,3.39.55,0,.91-.23,1.16-.72,1.77-2.23-2.67-4.45-8.01-6.67-7.56-3.11-22.22-8-34.23-11.11C504.78,26.23,405.2,0,303.83,0s-174.73,34.23-174.73,96.47c0,.07,0,.14,0,.22.05,10.64-5.83,20.46-15.42,25.08-8.2,3.95-16.68,8.58-23.71,12.94C35.74,168.94-2.93,226.29.17,282.31c3.4,55.29,47.07,69.89,88.21,69.89,1.87,0,3.75-.03,5.6-.09,56.02-1.77,143.6-20,243.19-109.37,22.76-20.64,41.92-41.68,71.49-74.87,2.66-2.98,7.43-2.38,9.35,1.12,4.36,7.94,6.74,17.01,6.74,26.62,0,5.14-.61,10.46-1.92,16.02-2.57,10.96-7.72,21.13-14.55,30.08-17.3,22.68-28.22,44.6-30.21,56.16-1.72,10.29,1.12,21.83,9.31,21.83.29,0,.61-.01.91-.04,6.67-.45,12.45-11.57,24.01-27.12,16.58-22.23,41-53.99,79.95-97.04,5.99-6.63,17.01-2.38,17.01,6.56v77.73h158.51v-28.29h-125.51v-60.99ZM326.06,141.38c-3.12,32.9-54.69,84.03-106.26,115.59-40,24.89-80.47,41.8-110.25,41.8-22.23,0-35.12-13.78-32.46-33.35,4.45-36,60.46-76.47,95.14-93.8,58.04-29.02,99.77-38.55,145.51-39.49,4.97-.1,9.01,4.24,8.34,9.16,0,.03,0,.06-.01.09ZM310.94,220.52c-84.02,78.25-155.61,123.59-219.62,125.37-1.63.05-3.28.09-4.95.09-36.24,0-77.3-14.41-77.3-65,0-39.12,40.02-92.92,97.81-128.94,28.46-17.77,96.03-52.9,160.05-52.9,13.02,0,25.02,2.05,34.72,5.89,11.02,4.37,8.39,20.69-3.45,21.24-31.59,1.47-69.59,7.76-126.84,34.67-41.8,19.57-95.59,65.8-100.03,103.15-3.12,26.67,13.77,40,39.57,40,32,0,73.79-13.34,115.59-39.12,53.34-33.34,102.25-84.91,105.36-122.7v-.11c.72-5.72,5.79-9.87,11.54-9.44,5.91.45,11.98,1.07,17.94,1.97,13.62,2.07,18.89,18.92,8.94,28.45-22.4,21.47-41.9,40.99-59.31,57.37Z"/>
      <path d="M509.27,77.67v40.36c0,5.15,6.05,7.91,9.94,4.55.03-.03.07-.06.1-.09,16.04-13.58,31.67-25.63,47.05-36.27,3.78-2.61,1.91-8.55-2.69-8.55h-54.4Z"/>
      <path d="M1706.31,77.67l-39.48,122.26c-1.17,3.94-2.32,8.15-3.39,12.68-1.08,4.52-2.11,8.84-3.09,12.96-.99,4.13-1.67,7.66-2.07,10.61h-2.36c-.59-3.14-1.42-6.78-2.5-10.9-1.09-4.12-2.21-8.45-3.39-12.96-1.17-4.52-2.36-8.54-3.53-12.09l-30.98-96.87c-4.38-13.69,1.14-28.73,13.51-36.04.06-.03.11-.07.17-.1,11.1-6.5,19.53-9.53,27.98-9.97,2.66,0,5.33,0,5.33-1.3,0-2.16-2.22-3.03-5.33-3.03-8.88,0-20.44,3.03-31.09,8.24-10.11,4.94-19.71,10.37-29.23,16.52-13.44,8.69-26.73,18.82-41.11,31.01-22.9,19.42-48.58,44.07-82.01,76.5-100.38,98.01-195.44,156.13-268.72,156.13-23.64,0-54.02-5.31-70.12-26.5-9.45-12.45-2.82-30.48,12.44-33.82,9.44-2.07,15.7-5.44,23.05-9.16.19-.1.38-.2.58-.3,6.49-3.47,14.41-.32,17.2,6.49,6.96,16.99,25.52,22.1,39.93,22.1,27.1,0,78.17-10.84,128.36-44.67,60.41-40.77,106.16-100.19,106.16-137.92,0-34.69-31.09-48.14-70.18-48.14-32.86,0-68.2,5.09-101.75,16.88-8,2.81-15.9,6.01-23.64,9.61-4.49,2.09-9.47-1.88-8.38-6.71.91-4.02,2.3-7.85,4.14-11.49,20.74-41.31,97.92-58.16,168.28-58.16,141.25,0,210.54,20.82,246.95,32.09,5.85,2.02,9.29,4.03,10.76,4.03.43,0,.7-.17.79-.57,1.77-2.6-4.45-6.07-8.45-7.81-29.31-11.71-124.81-47.27-250.51-47.27-80.73,0-156.75,23.61-175.21,77.67h-.21l.03.53c-.03.08-.05.16-.08.24-5.7,17.3-16.97,32.19-32.28,42.06-4.52,2.92-8.99,5.95-13.38,9.09-9.79,6.99-19.22,14.53-28.07,22.56-32.13,29.1-56.64,64.51-63.41,103.16-1.24,7.02-1.88,14.16-1.88,21.38,0,2.27.08,4.48.23,6.62,3.75,54.89,54.52,64.93,91.72,64.93,75.51,0,186.1-22.11,297.59-147.89,6.84-7.69,14.3-16.42,22.12-25.64,9.53-11.25,27.91-4.52,27.91,10.22v94.84h31.82v-110.78c0-5.49-.1-11.73-.29-18.71-.2-6.97-.34-13.89-.43-20.76-.1-6.41-.23-11.89-.41-16.43.29-.33.59-.64.87-.96h1.46c.98,4.32,2.15,9.13,3.53,14.44,1.37,5.3,2.75,10.51,4.13,15.61,1.37,5.11,2.64,9.53,3.83,13.26l40.95,124.33h29.17l40.95-124.62c1.38-4.33,2.85-9.44,4.42-15.33,1.57-5.89,3.1-11.44,4.57-16.64,1.48-5.2,2.4-8.88,2.8-11.04h2.35c0,1.76-.1,5.79-.29,12.08-.2,6.28-.39,13.46-.59,21.5-.2,8.07-.29,15.82-.29,23.27v110.78h32.7V77.67h-50.67ZM1196.08,251.17c3.46-4.27,6.53-8.98,9.23-14.11,8.15-15.51,12.23-34.96,12.23-58.33,0-.07,0-.15,0-.22-.08-17.2,8.51-33.27,22.88-42.72.14-.09.27-.18.41-.27,7.61-4.99,17.76-3.33,23.42,3.8,4.52,5.69,9.8,10.69,12.74,12.91,2.74,1.88,6.86,3.76,9.81,4.2.41.07.82.1,1.17.1,1.22,0,2.09-.37,2.35-1.26.19-.75-.04-.85-.92-1.15-1.44-.5-2.37-1.89-2.29-3.4h0s.14-2.47.14-2.47h0c1.53-27.27,19.4-50.86,45.18-59.87,21.71-7.59,44.1-12.48,65.81-12.48,30.21,0,57.75,9.54,57.75,41.2,0,36-53.3,87.61-112.38,127.5-19.03,12.7-37.23,23.22-53.88,31.28-2.85,1.38-5.64,2.69-8.38,3.91-21.33,9.56-39.75,14.69-53.67,14.69-15.99,0-37.7-8.79-36.81-29.6.06-1.13.18-2.16.31-3.09.56-3.85,2.25-7.44,4.76-10.42.06-.07.11-.13.15-.18ZM1175.2,187.84c3.07-3,8.24-.57,7.89,3.71-.57,6.83-1.71,15.5-4,22.82-2.91,9.28-7.47,16.89-13.25,22.98-5.81,6.1-12.87,10.61-21.22,13.56-1.51.53-4.44,1.24-7.42,1.9-4.06.89-7.43-3.23-5.71-7.02,9.11-20.03,25.33-39.95,43.72-57.94Z"/>
    </g>
  </g>
</svg>