<?xml version="1.0" encoding="UTF-8"?>
<svg id="Capa_2" data-name="Capa 2" xmlns="http://www.w3.org/2000/svg" viewBox="0 0 66.85 40.69">
  <defs>
    <style>
      .cls-1 {
        fill: red;
      }
    </style>
  </defs>
  <g id="Capa_1-2" data-name="Capa 1">
    <path class="cls-1" d="M66.85,22.72C66.85,6.61,52.59,0,52.59,0l-4.11,11.85c-3.69-2.01-8.74-3.26-15.06-3.26-6.32,0-11.37,1.26-15.06,3.26L14.25,0S0,6.61,0,22.72c0,0,4.88-12.58,11.6-16.11l3.73,7.3c-2.86,2.43-4.33,5.47-4.33,8.59,0,7.19,5.2,8.26,5.2,8.26,0,0-.41,9.94,12.74,9.94,0,0-6.51-6.93-6.51-9.95,0-1.19.48-1.59,1.32-1.59,2.39,0,9.68,7.78,9.68,7.78,0,0,7.29-7.78,9.68-7.78.84,0,1.32.4,1.32,1.59,0,3.02-6.51,9.95-6.51,9.95,13.15,0,12.74-9.94,12.74-9.94,0,0,5.2-1.07,5.2-8.26,0-3.12-1.47-6.16-4.33-8.59l3.73-7.3c6.71,3.53,11.6,16.11,11.6,16.11ZM37.91,27.52s6.52-6.44,6.52-9.88c0-1.29-.59-1.68-1.21-1.68-1.89,0-9.8,7.79-9.8,7.79,0,0-7.91-7.79-9.8-7.79-.63,0-1.21.39-1.21,1.68,0,3.43,6.52,9.88,6.52,9.88-3.67,0-12.74-.95-12.74-9.14,0-.63.13-1.22.38-1.79.46-1.06,1.32-2.01,2.45-2.84,3.4-2.5,9.29-3.92,14.4-3.92,5.11,0,11,1.42,14.4,3.92,1.13.83,1.99,1.78,2.45,2.84.25.57.38,1.16.38,1.79,0,8.2-9.07,9.14-12.74,9.14Z"/>
  </g>
</svg>