<?xml version="1.0" encoding="UTF-8"?>
<svg id="Capa_2" data-name="Capa 2" xmlns="http://www.w3.org/2000/svg" viewBox="0 0 20.68 20.68">
  <defs>
    <style>
      .cls-1 {
        fill: #3c3c3c;
      }
    </style>
  </defs>
  <g id="Capa_1-2" data-name="Capa 1">
    <path class="cls-1" d="M6.11,0C2.74,0,0,2.74,0,6.11v8.46c0,3.37,2.74,6.11,6.11,6.11h8.46c3.37,0,6.11-2.74,6.11-6.11V6.11c0-3.37-2.74-6.11-6.11-6.11H6.11ZM6.11.94h8.46c2.86,0,5.17,2.31,5.17,5.17v8.46c0,2.86-2.31,5.17-5.17,5.17H6.11c-2.86,0-5.17-2.31-5.17-5.17V6.11C.94,3.25,3.25.94,6.11.94ZM15.98,3.76c-.52,0-.94.42-.94.94s.42.94.94.94.94-.42.94-.94-.42-.94-.94-.94ZM10.34,5.17c-2.85,0-5.17,2.32-5.17,5.17s2.32,5.17,5.17,5.17,5.17-2.32,5.17-5.17-2.32-5.17-5.17-5.17ZM10.34,6.11c2.34,0,4.23,1.89,4.23,4.23s-1.89,4.23-4.23,4.23-4.23-1.89-4.23-4.23,1.89-4.23,4.23-4.23Z"/>
  </g>
</svg>