<?xml version="1.0" encoding="UTF-8"?>
<svg id="Capa_2" data-name="Capa 2" xmlns="http://www.w3.org/2000/svg" viewBox="0 0 1548.6 393.88">
  <defs>
    <style>
      .cls-1 {
        fill: red;
      }
    </style>
  </defs>
  <g id="Capa_1-2" data-name="Capa 1">
    <g>
      <g>
        <path class="cls-1" d="M770.31,262.21L746.57,2.92h-158.78l68.53,388h157.57s49.5-200.88,54.53-220.88c.37-1.47,1.68-2.48,3.2-2.48h0c1.55,0,2.9,1.06,3.22,2.58,4.44,20.52,48.38,220.77,48.38,220.77h156.27L1178.52,2.92h-148.85l-31.14,257.8c-.21,1.71-1.66,2.99-3.38,2.99h0c-1.74,0-3.19-1.31-3.38-3.03L963.53,2.92h-129.77s-52.52,238.16-57.42,259.7c-.32,1.39-1.55,2.37-2.98,2.37h0c-1.58,0-2.91-1.21-3.05-2.78ZM775.8,264.99h-5.24"/>
        <path class="cls-1" d="M556.12,2.92h-139.43l-62.52,388.01h103.04s15.57-152.88,25.55-242.83c.17-1.49,1.42-2.59,2.92-2.59h0c1.5,0,2.76,1.13,2.92,2.62l26.78,242.8h104.76L556.12,2.92Z"/>
        <path class="cls-1" d="M281.37,2.95C136.71,2.95,78.28,257.17,0,257.17v21.66c0,26.28,6.99,47.65,20.96,64.1,13.97,16.48,67.89,50.95,150.8,50.95,111.43,0,177.4-44.52,177.4-121.71V2.95h-67.79ZM219.32,269.38c0,30.72-9.94,47.18-47.56,47.18-25.11,0-46.77-8.77-46.77-36.28,0-18.42-7.54-21.77-16.46-21.77-21.94,0-85.41,31.22-85.41,31.22,88.45-71.15,125.37-211.1,182.04-211.1,11.34,0,14.97,7.13,14.97,18.3l-.82,172.46Z"/>
      </g>
      <path class="cls-1" d="M1438.63,142.83c0-38.79,53.14-97.68,53.14-97.68,0,0-61.83-45.15-139.95-45.15-91.03,0-182.08,34.2-182.08,109.49,0,145.59,245.67,98.88,245.67,177.83,0,16.46-16.57,34.6-62.76,34.6-80.45,0-65.27-57.2-65.27-57.2h-125.81s-27.49,129.15,193.52,129.15c154.62,0,193.52-65.75,193.52-112.96,0-112.78-109.97-83.33-109.97-138.08ZM1404.29,160.95c-16.7,0-102.44-17.15-102.44-53.44,0-16.38,7.11-34.79,52.69-34.79,58.33,0,64.58,50.23,64.58,59.42s3.39,28.8-14.83,28.8Z"/>
    </g>
  </g>
</svg>