<?xml version="1.0" encoding="UTF-8"?>
<svg id="Capa_2" data-name="Capa 2" xmlns="http://www.w3.org/2000/svg" viewBox="0 0 20.68 20.68">
  <defs>
    <style>
      .cls-1 {
        fill: #3c3c3c;
      }
    </style>
  </defs>
  <g id="Capa_1-2" data-name="Capa 1">
    <path class="cls-1" d="M3.16,0C1.42,0,0,1.42,0,3.16v14.36c0,1.73,1.42,3.16,3.16,3.16h14.36c1.73,0,3.16-1.42,3.16-3.16V3.16c0-1.73-1.42-3.16-3.16-3.16H3.16ZM3.16,1.72h14.36c.8,0,1.44.63,1.44,1.44v14.36c0,.8-.63,1.44-1.44,1.44H3.16c-.8,0-1.44-.63-1.44-1.44V3.16c0-.8.63-1.44,1.44-1.44ZM5.46,4.02c-.79,0-1.44.64-1.44,1.44s.64,1.44,1.44,1.44,1.44-.64,1.44-1.44-.64-1.44-1.44-1.44ZM4.6,8.04c-.32,0-.57.26-.57.57v7.47c0,.32.26.57.57.57h1.72c.32,0,.57-.26.57-.57v-7.47c0-.32-.26-.57-.57-.57h-1.72ZM8.62,8.04c-.32,0-.57.26-.57.57v7.47c0,.32.26.57.57.57h1.72c.32,0,.57-.26.57-.57v-4.31c0-.79.64-1.44,1.44-1.44s1.44.64,1.44,1.44v4.31c0,.32.26.57.57.57h1.72c.32,0,.57-.26.57-.57v-4.6c0-1.9-1.55-3.45-3.45-3.45-.88,0-1.69.34-2.3.89v-.31c0-.32-.26-.57-.57-.57h-1.72Z"/>
  </g>
</svg>