<?xml version="1.0" encoding="UTF-8"?>
<svg id="Capa_2" data-name="Capa 2" xmlns="http://www.w3.org/2000/svg" viewBox="0 0 177.79 38.97">
  <defs>
    <style>
      .cls-1 {
        fill: red;
      }
    </style>
  </defs>
  <g id="Capa_1-2" data-name="Capa 1">
    <g>
      <path class="cls-1" d="M177.79,21.73c0-15.41-13.64-21.73-13.64-21.73l-3.93,11.33c-3.53-1.92-8.36-3.12-14.41-3.12s-10.87,1.2-14.41,3.12l-3.93-11.33s-3.77,1.93-7.53,5.85c-2.16,2.25-4.4,2.68-6.92,2.05-1.35-.34-2.84-.57-4.42-.57-7.31,0-14.63,2.75-14.63,8.8,0,11.7,19.74,7.94,19.74,14.29,0,1.32-1.33,2.78-5.04,2.78-6.46,0-5.24-4.6-5.24-4.6h-10.11s-2.21,10.38,15.55,10.38c12.42,0,15.55-5.28,15.55-9.08,0-9.06-8.84-6.7-8.84-11.09,0-3.53,7.48-11.5,9.35-12.48l3.57,6.99c-2.74,2.33-4.15,5.23-4.15,8.22,0,6.88,4.98,7.9,4.98,7.9,0,0-.39,9.51,12.19,9.51,0,0-6.23-6.63-6.23-9.52,0-1.14.46-1.52,1.26-1.52,2.29,0,9.26,7.44,9.26,7.44,0,0,6.97-7.44,9.26-7.44.8,0,1.26.38,1.26,1.52,0,2.89-6.23,9.52-6.23,9.52,12.58,0,12.19-9.51,12.19-9.51,0,0,4.98-1.02,4.98-7.9,0-2.99-1.41-5.89-4.15-8.22l3.57-6.99c6.42,3.38,11.1,15.41,11.1,15.41ZM112.83,20.26c-1.34,0-8.23-1.38-8.23-4.29,0-1.32.57-2.79,4.23-2.79,4.69,0,5.19,4.04,5.19,4.77,0,.17.01.4.02.63-.04.3-.07.61-.1.92-.14.43-.44.76-1.11.76ZM150.11,26.33s6.24-6.17,6.24-9.45c0-1.23-.56-1.6-1.16-1.6-1.81,0-9.37,7.45-9.37,7.45,0,0-7.56-7.45-9.37-7.45-.6,0-1.16.37-1.16,1.6,0,3.29,6.24,9.45,6.24,9.45-3.52,0-12.19-.91-12.19-8.75,0-.6.13-1.17.36-1.71.44-1.01,1.26-1.92,2.34-2.72,3.25-2.39,8.89-3.75,13.78-3.75s10.52,1.36,13.78,3.75c1.09.8,1.9,1.71,2.34,2.72.24.54.36,1.11.36,1.71,0,7.84-8.67,8.75-12.19,8.75Z"/>
      <path class="cls-1" d="M82.73,7.56l-2.5,20.71c-.02.14-.13.24-.27.24s-.26-.1-.27-.24l-2.27-20.71h-10.43s-4.22,19.14-4.61,20.87c-.03.11-.12.19-.24.19-.13,0-.23-.1-.25-.22l-1.91-20.83h-12.76l5.51,31.17h12.66s3.98-16.14,4.38-17.75c.03-.12.14-.2.26-.2s.23.09.26.21c.36,1.65,3.89,17.74,3.89,17.74h12.56l7.96-31.17h-11.96Z"/>
      <path class="cls-1" d="M33.48,7.56l-5.02,31.17h8.28s1.25-12.28,2.05-19.51c.01-.12.11-.21.23-.21s.22.09.23.21l2.15,19.51h8.42l-5.14-31.17h-11.2Z"/>
      <path class="cls-1" d="M0,27.99v1.74c0,2.11.56,3.83,1.68,5.15,1.12,1.32,5.46,4.09,12.12,4.09,8.95,0,14.25-3.58,14.25-9.78V7.56h-5.45C10.98,7.56,6.29,27.99,0,27.99ZM17.62,28.97c0,2.47-.8,3.79-3.82,3.79-2.02,0-3.76-.7-3.76-2.92,0-1.48-.61-1.75-1.32-1.75-1.76,0-6.86,2.51-6.86,2.51,7.11-5.72,10.07-16.96,14.63-16.96.91,0,1.2.57,1.2,1.47l-.07,13.86Z"/>
    </g>
  </g>
</svg>